<svg width="28" height="28" viewBox="0 0 28 28" fill="none" xmlns="http://www.w3.org/2000/svg">
<rect x="1" y="1" width="26" height="26" rx="13" fill="#EB3323" stroke="#EB3323" stroke-width="2"/>
<path fill-rule="evenodd" clip-rule="evenodd" d="M10.0065 8C9.4506 8 9 8.45061 9 9.00645V17.4774C9 18.0333 9.4506 18.4839 10.0065 18.4839H11.0968L11.0968 16.8065C10.8652 16.8065 10.6774 16.6187 10.6774 16.3871V10.0968C10.6774 9.86517 10.8652 9.67742 11.0968 9.67742H15.2903C15.5219 9.67742 15.7097 9.86517 15.7097 10.0968H17.3871V9.00645C17.3871 8.4506 16.9365 8 16.3806 8H10.0065ZM11.5161 11.5226C11.5161 10.9667 11.9667 10.5161 12.5226 10.5161H18.8968C19.4526 10.5161 19.9032 10.9667 19.9032 11.5226V19.9935C19.9032 20.5494 19.4526 21 18.8968 21H12.5226C11.9667 21 11.5161 20.5494 11.5161 19.9935V11.5226ZM13.1935 12.6129C13.1935 12.3813 13.3813 12.1935 13.6129 12.1935H17.8065C18.0381 12.1935 18.2258 12.3813 18.2258 12.6129V18.9032C18.2258 19.1348 18.0381 19.3226 17.8065 19.3226H13.6129C13.3813 19.3226 13.1935 19.1348 13.1935 18.9032V12.6129Z" fill="#1F1F1F"/>
</svg>
