<svg width="20" height="20" viewBox="0 0 20 20" fill="none" xmlns="http://www.w3.org/2000/svg">
<path fill-rule="evenodd" clip-rule="evenodd" d="M10 2C5.584 2 2 5.584 2 10C2 14.416 5.584 18 10 18C14.416 18 18 14.416 18 10C18 5.584 14.416 2 10 2ZM9.2 15.6V14H10.8V15.6H9.2ZM11.736 10.136L12.456 9.4C12.912 8.944 13.2 8.304 13.2 7.6C13.2 5.832 11.768 4.4 10 4.4C8.232 4.4 6.8 5.832 6.8 7.6H8.4C8.4 6.72 9.12 6 10 6C10.88 6 11.6 6.72 11.6 7.6C11.6 8.04 11.424 8.44 11.128 8.728L10.136 9.736C9.56 10.32 9.2 11.12 9.2 12V12.4H10.8C10.8 11.2 11.16 10.72 11.736 10.136Z" fill="black"/>
<mask id="mask0" mask-type="alpha" maskUnits="userSpaceOnUse" x="2" y="2" width="16" height="16">
<path d="M10 2C5.584 2 2 5.584 2 10C2 14.416 5.584 18 10 18C14.416 18 18 14.416 18 10C18 5.584 14.416 2 10 2Z" fill="white"/>
</mask>
<g mask="url(#mask0)">
<rect width="20" height="20" fill="#9D9D9D"/>
</g>
<line x1="13.181" y1="13.182" x2="6.817" y2="6.81802" stroke="white"/>
<line x1="6.81698" y1="13.182" x2="13.1809" y2="6.81802" stroke="white"/>
</svg>
