<svg width="25" height="25" viewBox="0 0 25 25" fill="none" xmlns="http://www.w3.org/2000/svg">
<rect width="25" height="25" fill="#F9F9F9"/>
<g filter="url(#filter0_b)">
<path d="M17 16.3462C17 21.1256 13.1944 25 8.50002 25C3.8056 25 2.46247e-05 21.1256 2.46247e-05 16.3462C2.46247e-05 11.5668 3.8056 7.69232 8.50002 7.69232C13.1944 7.69232 17 11.5668 17 16.3462Z" fill="#F9F9F9"/>
<path d="M16 16.3462C16 20.5903 12.6253 24 8.50002 24C4.37472 24 1.00002 20.5903 1.00002 16.3462C1.00002 12.1021 4.37472 8.69232 8.50002 8.69232C12.6253 8.69232 16 12.1021 16 16.3462Z" stroke="#B1B1B1" stroke-width="2"/>
</g>
<path d="M12.2222 4.80769C12.2222 6.92761 10.5389 8.61538 8.49999 8.61538C6.4611 8.61538 4.77777 6.92761 4.77777 4.80769C4.77777 2.68778 6.4611 1 8.49999 1C10.5389 1 12.2222 2.68778 12.2222 4.80769Z" fill="#F9F9F9" stroke="#B1B1B1" stroke-width="2"/>
<rect y="15.3846" width="17" height="9.61538" fill="#F9F9F9"/>
<g filter="url(#filter1_b)">
<path d="M25 16.3462C25 21.1256 21.1944 25 16.5 25C11.8056 25 8.00002 21.1256 8.00002 16.3462C8.00002 11.5668 11.8056 7.69232 16.5 7.69232C21.1944 7.69232 25 11.5668 25 16.3462Z" fill="#F9F9F9"/>
<path d="M24 16.3462C24 20.5903 20.6253 24 16.5 24C12.3747 24 9.00002 20.5903 9.00002 16.3462C9.00002 12.1021 12.3747 8.69232 16.5 8.69232C20.6253 8.69232 24 12.1021 24 16.3462Z" stroke="#C7C7C7" stroke-width="2"/>
</g>
<rect x="8" y="15.3846" width="17" height="9.61538" fill="#F9F9F9"/>
<path d="M20.2222 4.80769C20.2222 6.92761 18.5389 8.61538 16.5 8.61538C14.4611 8.61538 12.7778 6.92761 12.7778 4.80769C12.7778 2.68778 14.4611 1 16.5 1C18.5389 1 20.2222 2.68778 20.2222 4.80769Z" fill="#F9F9F9" stroke="#C7C7C7" stroke-width="2"/>
<defs>
<filter id="filter0_b" x="-4" y="3.69232" width="25" height="25.3077" filterUnits="userSpaceOnUse" color-interpolation-filters="sRGB">
<feFlood flood-opacity="0" result="BackgroundImageFix"/>
<feGaussianBlur in="BackgroundImage" stdDeviation="2"/>
<feComposite in2="SourceAlpha" operator="in" result="effect1_backgroundBlur"/>
<feBlend mode="normal" in="SourceGraphic" in2="effect1_backgroundBlur" result="shape"/>
</filter>
<filter id="filter1_b" x="4" y="3.69232" width="25" height="25.3077" filterUnits="userSpaceOnUse" color-interpolation-filters="sRGB">
<feFlood flood-opacity="0" result="BackgroundImageFix"/>
<feGaussianBlur in="BackgroundImage" stdDeviation="2"/>
<feComposite in2="SourceAlpha" operator="in" result="effect1_backgroundBlur"/>
<feBlend mode="normal" in="SourceGraphic" in2="effect1_backgroundBlur" result="shape"/>
</filter>
</defs>
</svg>
