<svg width="21" height="21" viewBox="0 0 21 21" fill="none" xmlns="http://www.w3.org/2000/svg">
<g filter="url(#filter0_b)">
<path d="M14.28 13.7308C14.28 17.7455 11.0833 21 7.14002 21C3.19671 21 2.06848e-05 17.7455 2.06848e-05 13.7308C2.06848e-05 9.71609 3.19671 6.46155 7.14002 6.46155C11.0833 6.46155 14.28 9.71609 14.28 13.7308Z" fill="white"/>
<path d="M13.28 13.7308C13.28 17.2102 10.5142 20 7.14002 20C3.76583 20 1.00002 17.2102 1.00002 13.7308C1.00002 10.2514 3.76583 7.46155 7.14002 7.46155C10.5142 7.46155 13.28 10.2514 13.28 13.7308Z" stroke="#A82317" stroke-width="2"/>
</g>
<path d="M10.1066 4.03846C10.1066 5.73354 8.76159 7.07692 7.13998 7.07692C5.51837 7.07692 4.17331 5.73354 4.17331 4.03846C4.17331 2.34338 5.51837 1 7.13998 1C8.76159 1 10.1066 2.34338 10.1066 4.03846Z" fill="white" stroke="#A82317" stroke-width="2"/>
<rect y="12.9231" width="14.28" height="8.07692" fill="white"/>
<g filter="url(#filter1_b)">
<path d="M21 13.7308C21 17.7455 17.8033 21 13.86 21C9.91671 21 6.72002 17.7455 6.72002 13.7308C6.72002 9.71609 9.91671 6.46155 13.86 6.46155C17.8033 6.46155 21 9.71609 21 13.7308Z" fill="white"/>
<path d="M20 13.7308C20 17.2102 17.2342 20 13.86 20C10.4858 20 7.72002 17.2102 7.72002 13.7308C7.72002 10.2514 10.4858 7.46155 13.86 7.46155C17.2342 7.46155 20 10.2514 20 13.7308Z" stroke="#EB3323" stroke-width="2"/>
</g>
<rect x="6.72" y="12.9231" width="14.28" height="8.07692" fill="white"/>
<path d="M16.8266 4.03846C16.8266 5.73354 15.4816 7.07692 13.86 7.07692C12.2384 7.07692 10.8933 5.73354 10.8933 4.03846C10.8933 2.34338 12.2384 1 13.86 1C15.4816 1 16.8266 2.34338 16.8266 4.03846Z" fill="white" stroke="#EB3323" stroke-width="2"/>
<defs>
<filter id="filter0_b" x="-3.99997" y="2.46155" width="22.28" height="22.5385" filterUnits="userSpaceOnUse" color-interpolation-filters="sRGB">
<feFlood flood-opacity="0" result="BackgroundImageFix"/>
<feGaussianBlur in="BackgroundImage" stdDeviation="2"/>
<feComposite in2="SourceAlpha" operator="in" result="effect1_backgroundBlur"/>
<feBlend mode="normal" in="SourceGraphic" in2="effect1_backgroundBlur" result="shape"/>
</filter>
<filter id="filter1_b" x="2.72003" y="2.46155" width="22.28" height="22.5385" filterUnits="userSpaceOnUse" color-interpolation-filters="sRGB">
<feFlood flood-opacity="0" result="BackgroundImageFix"/>
<feGaussianBlur in="BackgroundImage" stdDeviation="2"/>
<feComposite in2="SourceAlpha" operator="in" result="effect1_backgroundBlur"/>
<feBlend mode="normal" in="SourceGraphic" in2="effect1_backgroundBlur" result="shape"/>
</filter>
</defs>
</svg>
