<svg width="37" height="37" viewBox="0 0 37 37" fill="none" xmlns="http://www.w3.org/2000/svg">
<path d="M17.1539 12.6581C17.3069 11.4992 18.9838 11.4992 19.1368 12.6581L19.4594 15.103C19.5343 15.6707 20.0697 16.0597 20.6327 15.9555L23.0577 15.5068C24.2072 15.2941 24.7254 16.889 23.6704 17.3926L21.4449 18.455C20.9281 18.7016 20.7236 19.331 20.9967 19.8343L22.1728 22.0019C22.7302 23.0294 21.3735 24.0151 20.5686 23.1674L18.8705 21.379C18.4762 20.9638 17.8145 20.9638 17.4202 21.379L15.7221 23.1674C14.9172 24.0151 13.5605 23.0294 14.1179 22.0019L15.294 19.8343C15.5671 19.331 15.3626 18.7016 14.8458 18.455L12.6203 17.3926C11.5654 16.889 12.0836 15.2941 13.233 15.5068L15.658 15.9555C16.221 16.0597 16.7564 15.6707 16.8313 15.103L17.1539 12.6581Z" fill="#C7C7C7"/>
<path d="M14.1353 14.2707C13.5824 13.2408 14.9435 12.2612 15.7446 13.1125L17.4347 14.9084C17.8271 15.3254 18.4889 15.3284 18.885 14.9149L20.5911 13.1342C21.3998 12.2902 22.7521 13.2819 22.19 14.3069L21.0042 16.4692C20.7289 16.9713 20.9306 17.6016 21.4462 17.8505L23.667 18.9229C24.7197 19.4312 24.1943 21.0237 23.0458 20.8059L20.6229 20.3463C20.0603 20.2396 19.5232 20.6262 19.4457 21.1936L19.1121 23.637C18.954 24.7952 17.2771 24.7877 17.1294 23.6281L16.8177 21.1818C16.7453 20.6138 16.2117 20.2224 15.6482 20.324L13.2212 20.7618C12.0708 20.9694 11.5598 19.3722 12.6169 18.8734L14.8473 17.821C15.3651 17.5766 15.5724 16.9482 15.3016 16.4436L14.1353 14.2707Z" fill="#C7C7C7"/>
<circle cx="18.1454" cy="18.1454" r="4" fill="#C7C7C7"/>
<circle cx="18.1454" cy="18.1454" r="2" fill="white"/>
</svg>
