<svg width="30" height="20" viewBox="0 0 30 20" fill="none" xmlns="http://www.w3.org/2000/svg">
<path d="M29.3748 3.12273C29.0312 1.89545 28.0146 0.927273 26.7213 0.595455C24.3828 0 15 0 15 0C15 0 5.62202 0 3.27871 0.595455C1.99014 0.922727 0.973592 1.89091 0.625199 3.12273C0 5.35 0 10 0 10C0 10 0 14.65 0.625199 16.8773C0.96882 18.1045 1.98536 19.0727 3.27871 19.4045C5.62202 20 15 20 15 20C15 20 24.3828 20 26.7213 19.4045C28.0099 19.0773 29.0264 18.1091 29.3748 16.8773C30 14.65 30 10 30 10C30 10 30 5.35 29.3748 3.12273Z" fill="#FF0000"/>
<path d="M7.66751 10.1878L6.87344 13.1165C6.83907 13.2334 6.81844 13.3744 6.81157 13.5394C6.80469 13.6975 6.87344 13.8556 7.01782 14.0137L6.97657 14.1787C6.83219 14.1994 6.69469 14.2165 6.56407 14.2303C6.43344 14.2372 6.30282 14.2372 6.17219 14.2303C5.96594 14.2234 5.78032 14.1959 5.61532 14.1478C5.45032 14.0928 5.31626 14.0069 5.21313 13.89C5.11688 13.7662 5.05844 13.6047 5.03782 13.4053C5.02407 13.2059 5.05844 12.955 5.14094 12.6525L5.82157 10.1156C5.78032 9.82686 5.72876 9.5278 5.66688 9.21842C5.61188 8.90905 5.53626 8.55842 5.44001 8.16655C5.34376 7.74717 5.23719 7.44811 5.12032 7.26936C5.00344 7.08373 4.86594 6.99436 4.70782 7.00123C4.55657 7.00811 4.41219 7.07686 4.27469 7.20748C4.13719 7.33123 4.00657 7.55811 3.88282 7.88811L3.68688 7.80561C3.76251 7.55811 3.86907 7.33811 4.00657 7.14561C4.14407 6.94623 4.29876 6.78123 4.47063 6.65061C4.64938 6.51311 4.83844 6.40998 5.03782 6.34123C5.24407 6.26561 5.44688 6.2278 5.64626 6.2278C5.92813 6.2278 6.16876 6.29311 6.36813 6.42373C6.56751 6.54748 6.73251 6.71248 6.86313 6.91873C6.99376 7.12498 7.09688 7.35873 7.17251 7.61998C7.24813 7.87436 7.30657 8.12873 7.34782 8.38311C7.38219 8.60998 7.41657 8.82998 7.45094 9.04311C7.49219 9.25623 7.53001 9.46248 7.56438 9.66186C7.86001 9.16686 8.10751 8.67873 8.30688 8.19748C8.51313 7.70936 8.67813 7.16623 8.80188 6.56811L9.62688 6.3928C9.60626 6.84655 9.52376 7.26248 9.37938 7.64061C9.24188 8.01873 9.07344 8.36592 8.87407 8.68217C8.67469 8.99155 8.46501 9.27342 8.24501 9.5278C8.02501 9.7753 7.83251 9.9953 7.66751 10.1878ZM12.602 13.4465C12.7395 13.4878 12.8736 13.4465 13.0042 13.3228C13.1348 13.199 13.2586 13.0203 13.3755 12.7865C13.4923 12.5528 13.6023 12.2812 13.7055 11.9719C13.8086 11.6556 13.898 11.3256 13.9736 10.9819C14.0561 10.6381 14.1248 10.2944 14.1798 9.95061C14.2417 9.60686 14.2864 9.29061 14.3139 9.00186C14.3414 8.71311 14.3517 8.46561 14.3448 8.25936C14.3448 8.04623 14.3276 7.9053 14.2933 7.83655C14.2314 7.72655 14.142 7.68873 14.0251 7.72311L13.9736 7.64061C14.1111 7.53061 14.2692 7.44467 14.448 7.3828C14.6267 7.32092 14.802 7.28998 14.9739 7.28998C15.3589 7.28998 15.6442 7.37592 15.8298 7.5478C16.0155 7.71967 16.1289 7.94655 16.1701 8.22842C16.2183 8.5103 16.2148 8.82998 16.1598 9.18748C16.1048 9.53811 16.0292 9.89217 15.933 10.2497C15.8436 10.6072 15.7508 10.9544 15.6545 11.2912C15.5583 11.6212 15.493 11.9065 15.4586 12.1472C15.438 12.2778 15.4173 12.4153 15.3967 12.5597C15.3761 12.6972 15.3658 12.8278 15.3658 12.9515C15.3658 13.0753 15.383 13.1819 15.4173 13.2712C15.4517 13.3606 15.5205 13.419 15.6236 13.4465C15.7748 13.4878 15.9295 13.4156 16.0876 13.23C16.2526 13.0444 16.4108 12.79 16.562 12.4669C16.7201 12.1369 16.8714 11.7587 17.0158 11.3325C17.1601 10.9062 17.2942 10.4697 17.418 10.0228C17.5211 9.64467 17.6105 9.27342 17.6861 8.90905C17.7686 8.5378 17.8339 8.20436 17.882 7.90873C17.937 7.61311 17.9714 7.36561 17.9851 7.16623C18.0058 6.95998 18.0023 6.82936 17.9748 6.77436C17.9336 6.65748 17.8476 6.61623 17.717 6.65061L17.6758 6.56811C17.8201 6.46498 17.9851 6.38248 18.1708 6.32061C18.3564 6.25873 18.5351 6.2278 18.707 6.2278C18.9889 6.2278 19.2123 6.34123 19.3773 6.56811C19.5423 6.78811 19.6489 7.08373 19.697 7.45498C19.7451 7.81936 19.7383 8.23873 19.6764 8.71311C19.6214 9.18061 19.5114 9.66186 19.3464 10.1569C19.1883 10.6244 19.0061 11.0987 18.7998 11.58C18.5936 12.0544 18.3495 12.4875 18.0676 12.8794C17.7858 13.2712 17.4626 13.5944 17.0983 13.8487C16.7408 14.0962 16.3351 14.2234 15.8814 14.2303C15.6545 14.2372 15.4276 14.2165 15.2008 14.1684C14.9808 14.1203 14.778 14.0412 14.5923 13.9312C14.4067 13.8212 14.252 13.6769 14.1283 13.4981C14.0114 13.3194 13.9495 13.0994 13.9426 12.8381C13.8258 13.0375 13.7055 13.2231 13.5817 13.395C13.4648 13.5669 13.3273 13.7147 13.1692 13.8384C13.018 13.9622 12.8426 14.0619 12.6433 14.1375C12.4439 14.2062 12.2136 14.2372 11.9523 14.2303C11.6292 14.2234 11.3611 14.1684 11.148 14.0653C10.9417 13.9622 10.7801 13.8212 10.6633 13.6425C10.5533 13.4637 10.4845 13.2575 10.457 13.0237C10.4295 12.79 10.4364 12.539 10.4776 12.2709L11.1273 7.77467C11.1823 7.3828 11.1858 7.11467 11.1376 6.9703C11.0895 6.82592 11.0105 6.7503 10.9005 6.74342C10.7836 6.72967 10.6461 6.8053 10.488 6.9703C10.3298 7.12842 10.2026 7.36217 10.1064 7.67155C9.9689 8.0978 9.94483 8.5378 10.0342 8.99155L9.75577 9.06373C9.70077 8.80248 9.68015 8.5378 9.6939 8.26967C9.71452 8.00155 9.76952 7.74717 9.8589 7.50655C9.98952 7.14217 10.2026 6.83623 10.4983 6.58873C10.7939 6.34123 11.1755 6.21748 11.643 6.21748C11.8423 6.21748 12.0314 6.25873 12.2101 6.34123C12.3889 6.41686 12.5401 6.53373 12.6639 6.69186C12.7876 6.84311 12.877 7.03561 12.932 7.26936C12.987 7.50311 12.9905 7.77811 12.9423 8.09436L12.303 12.4978C12.2892 12.5734 12.2789 12.6594 12.272 12.7556C12.2651 12.8519 12.2686 12.9481 12.2823 13.0444C12.303 13.1337 12.3339 13.2162 12.3751 13.2919C12.4233 13.3675 12.4989 13.419 12.602 13.4465ZM27.2201 5.05217L27.3954 5.02123C27.4642 5.11748 27.5123 5.25498 27.5398 5.43373C27.5673 5.60561 27.5673 5.80155 27.5398 6.02155C27.5192 6.23467 27.4676 6.46155 27.3851 6.70217C27.3095 6.93592 27.2029 7.15936 27.0654 7.37248C26.9348 7.58561 26.7664 7.77811 26.5601 7.94998C26.3608 8.12186 26.127 8.24905 25.8589 8.33155C25.6595 8.39342 25.4429 8.4278 25.2092 8.43467C24.9823 8.44155 24.7314 8.41405 24.4564 8.35217C24.1814 8.2903 23.8858 8.19061 23.5695 8.05311C23.2601 7.91561 22.9301 7.72998 22.5795 7.49623C22.3458 7.34498 22.0983 7.24873 21.837 7.20748C21.5826 7.15936 21.3454 7.19373 21.1254 7.31061C20.9811 7.38623 20.8539 7.4928 20.7439 7.6303C20.6408 7.76092 20.5754 7.94655 20.5479 8.18717L20.4036 8.17686C20.3486 7.96373 20.3486 7.75405 20.4036 7.5478C20.4586 7.34155 20.5479 7.15248 20.6717 6.98061C20.7954 6.80186 20.9467 6.65061 21.1254 6.52686C21.3111 6.40311 21.507 6.31373 21.7133 6.25873C22.0158 6.18311 22.332 6.15561 22.662 6.17623C22.992 6.19686 23.322 6.2278 23.652 6.26905C23.982 6.3103 24.3086 6.34811 24.6317 6.38248C24.9617 6.41686 25.2745 6.41342 25.5701 6.37217C25.9001 6.31717 26.2061 6.19342 26.4879 6.00092C26.7698 5.80842 27.0139 5.49217 27.2201 5.05217ZM24.4461 10.6209H22.8579L22.2804 12.6834C22.2598 12.7453 22.2426 12.8244 22.2289 12.9206C22.2151 13.01 22.2048 13.1028 22.1979 13.199C22.1911 13.2953 22.1876 13.3881 22.1876 13.4775C22.1945 13.56 22.2117 13.6287 22.2392 13.6837C22.2942 13.8006 22.3801 13.8419 22.497 13.8075L22.5383 13.89C22.3939 14 22.2289 14.0859 22.0433 14.1478C21.8576 14.2097 21.6789 14.2372 21.507 14.2303C21.2458 14.2303 21.0361 14.1719 20.8779 14.055C20.7198 13.9381 20.6029 13.7903 20.5273 13.6115C20.4517 13.4259 20.4139 13.2231 20.4139 13.0031C20.4139 12.7831 20.4414 12.5734 20.4964 12.374L20.9811 10.6209H19.8158L19.9498 10.0847H21.1358L21.3626 9.26998C21.3833 9.20811 21.4004 9.13248 21.4142 9.04311C21.4279 8.94686 21.4383 8.85061 21.4451 8.75436C21.452 8.65811 21.452 8.5653 21.4451 8.47592C21.4451 8.38655 21.4314 8.31436 21.4039 8.25936C21.3489 8.14248 21.2629 8.10123 21.1461 8.13561L21.1048 8.06342C21.2492 7.95342 21.4142 7.86748 21.5998 7.80561C21.7854 7.74373 21.9642 7.7128 22.1361 7.7128C22.3904 7.7128 22.5967 7.77123 22.7548 7.88811C22.9198 8.00498 23.0401 8.15623 23.1158 8.34186C23.1914 8.52061 23.2292 8.71998 23.2292 8.93998C23.2292 9.15998 23.2017 9.37311 23.1467 9.57936L23.0126 10.0847H24.5698L24.4461 10.6209Z" fill="white"/>
</svg>
